<svg xmlns="http://www.w3.org/2000/svg" width="296" height="171" viewBox="0 0 296 171">
  <g id="Group_5548" data-name="Group 5548" transform="translate(-376 -224)">
    <rect id="Rectangle_2974" data-name="Rectangle 2974" width="296" height="171" rx="8" transform="translate(376 224)" fill="#f9f9f9"/>
    <g id="Group_5519" data-name="Group 5519" transform="translate(8716 5264)">
      <path id="Vector" d="M0,0H48V48H0Z" transform="translate(-8216 -4978.5)" fill="none"/>
      <g id="Group_5018" data-name="Group 5018" transform="translate(2702.406 -7516.12)">
        <path id="Vector-2" data-name="Vector" d="M47.248,21.912,40.007,4.98C38.689,1.88,36.723.122,34.479.006,32.258-.11,30.107,1.44,28.464,4.4l-4.4,7.888a4.845,4.845,0,0,1-3.678,2.776A4.747,4.747,0,0,1,16.3,12.937l-.509-.648c-1.642-2.059-3.678-3.053-5.76-2.845s-3.863,1.642-5.043,3.979l-4,7.981A9.212,9.212,0,0,0,9.218,34.751H38.735a9.225,9.225,0,0,0,7.7-4.141A9.055,9.055,0,0,0,47.248,21.912Z" transform="translate(-10918.405 2550.869)" fill="#eee"/>
        <path id="Vector-3" data-name="Vector" d="M15.638,7.819A7.819,7.819,0,1,1,7.819,0,7.819,7.819,0,0,1,15.638,7.819Z" transform="translate(-10913.789 2537.62)" fill="#eee"/>
      </g>
    </g>
  </g>
</svg>
